<svg xmlns="http://www.w3.org/2000/svg" viewBox="0 0 1200 630" role="img" aria-label="Holo Portal">
  <defs>
    <linearGradient id="bg" x1="120" y1="40" x2="1080" y2="590" gradientUnits="userSpaceOnUse">
      <stop offset="0" stop-color="#f6fdff"/>
      <stop offset=".48" stop-color="#eefaff"/>
      <stop offset="1" stop-color="#d9f3ff"/>
    </linearGradient>
    <linearGradient id="accent" x1="140" y1="520" x2="1060" y2="160" gradientUnits="userSpaceOnUse">
      <stop offset="0" stop-color="#00a9df"/>
      <stop offset="1" stop-color="#0074c8"/>
    </linearGradient>
    <filter id="shadow" x="-20%" y="-20%" width="140%" height="140%">
      <feDropShadow dx="0" dy="18" stdDeviation="20" flood-color="#006fa6" flood-opacity=".18"/>
    </filter>
  </defs>
  <rect width="1200" height="630" fill="url(#bg)"/>
  <path d="M0 495c153 72 335 91 545 56 167-28 307-83 453-57 77 14 139 46 202 96v40H0z" fill="url(#accent)" opacity=".95"/>
  <path d="M90 450c166 68 340 75 533 27 150-37 276-96 426-69 57 10 105 31 151 64v158H0V491c29-20 58-34 90-41z" fill="#fff" opacity=".82"/>
  <g filter="url(#shadow)">
    <rect x="86" y="88" width="1028" height="368" rx="34" fill="#fff" opacity=".94"/>
    <path d="M178 344c64-126 184-198 337-198 132 0 221 52 272 139-63-18-110-4-144 45-58 84-153 134-266 134-84 0-151-39-199-120z" fill="#111827"/>
    <path d="M382 152c17-69 54-124 113-165 23 77 16 142-22 193z" fill="#111827"/>
    <path d="M790 336c71 12 125 49 164 111-76 6-139-15-187-63z" fill="#111827"/>
    <path d="M794 336c68-35 126-35 174 0-46 35-102 46-168 34z" fill="#263446"/>
    <circle cx="661" cy="259" r="24" fill="#fff"/>
    <circle cx="669" cy="251" r="10" fill="#111827"/>
    <path d="M231 225c33-14 56-38 68-73 14 35 38 59 72 73-34 13-58 36-72 70-12-34-35-57-68-70z" fill="#00a9df"/>
    <path d="M933 144l22 45 50 8-36 35 9 50-45-24-44 24 8-50-36-35 50-8z" fill="#ffd45e"/>
  </g>
  <text x="120" y="552" fill="#08364a" font-family="Arial, 'Helvetica Neue', sans-serif" font-size="64" font-weight="800">Holo Portal</text>
  <text x="122" y="595" fill="#1c6b86" font-family="Arial, 'Helvetica Neue', sans-serif" font-size="28" font-weight="700">非公式ホロライブ情報ポータル</text>
</svg>
